<?xml version="1.0" standalone="no"?>
<!DOCTYPE svg PUBLIC "-//W3C//DTD SVG 20010904//EN"
 "http://www.w3.org/TR/2001/REC-SVG-20010904/DTD/svg10.dtd">
<svg version="1.0" xmlns="http://www.w3.org/2000/svg"
 width="225.000000pt" height="225.000000pt" viewBox="0 0 225.000000 225.000000"
 preserveAspectRatio="xMidYMid meet">
<metadata>
Created by potrace 1.11, written by Peter Selinger 2001-2013
</metadata>
<g transform="translate(0.000000,225.000000) scale(0.100000,-0.100000)"
fill="#000000" stroke="none">
<path d="M424 1856 c-5 -12 34 -194 145 -681 l38 -169 -32 -48 c-165 -240 -14
-560 270 -573 75 -3 155 17 216 54 l47 29 348 3 c192 1 356 5 366 7 15 4 15 8
-2 65 -39 138 -77 194 -153 231 -59 28 -114 35 -304 35 l-132 1 -33 66 c-18
36 -56 92 -85 124 l-53 58 30 33 c34 39 34 48 -4 69 -26 14 -28 14 -47 -9 -10
-13 -19 -32 -19 -42 0 -25 -26 -35 -46 -18 -19 16 -27 35 -126 294 -83 220
-126 316 -156 351 -38 45 -116 94 -178 114 -78 24 -83 24 -90 6z m538 -846
c41 -12 143 -99 153 -131 5 -13 1 -25 -10 -33 -25 -18 -15 -51 15 -51 24 -1
25 -2 22 -68 -3 -102 -47 -176 -136 -233 -16 -10 -31 -14 -33 -9 -2 6 -8 17
-13 25 -13 21 -46 -1 -43 -29 3 -19 -2 -21 -45 -21 -65 0 -112 15 -169 53 -43
29 -93 87 -93 109 0 5 9 12 20 16 17 6 18 10 7 32 -7 14 -18 26 -25 26 -7 1
-17 2 -23 3 -20 2 -4 113 25 167 32 61 54 87 97 113 42 26 45 26 52 1 4 -16 9
-18 29 -11 12 4 23 14 24 22 3 42 3 42 57 36 28 -3 69 -11 89 -17z"/>
<path d="M921 866 c-17 -30 -47 -68 -66 -85 -20 -18 -32 -37 -29 -45 3 -8 0
-24 -6 -36 -9 -16 -9 -25 -1 -33 18 -18 79 52 87 99 5 36 23 84 46 127 5 11 8
21 6 23 -2 2 -19 -21 -37 -50z"/>
</g>
</svg>
